<svg id="Layer_1" data-name="Layer 1" xmlns="http://www.w3.org/2000/svg" width="64" height="64" viewBox="0 0 64 64"><defs><style>.cls-1{fill:#666;}</style></defs><title>sliders_up</title><path id="sliders_up" class="cls-1" d="M18,21a7,7,0,0,0-6-6.92V7a1,1,0,1,0-2,0v7.08a7,7,0,0,0,0,13.84V57a1,1,0,0,0,2,0V27.92A7,7,0,0,0,18,21Zm-7,5a5,5,0,1,1,5-5A5,5,0,0,1,11,26ZM38,43a7,7,0,0,0-6-6.92V7a1,1,0,0,0-2,0V36.08a7,7,0,0,0,0,13.84V57a1,1,0,0,0,2,0V49.92A7,7,0,0,0,38,43Zm-7,5a5,5,0,1,1,5-5A5,5,0,0,1,31,48ZM58,29a7,7,0,0,0-6-6.92V7a1,1,0,0,0-2,0V22.08a7,7,0,0,0,0,13.84V57a1,1,0,0,0,2,0V35.92A7,7,0,0,0,58,29Zm-7,5a5,5,0,1,1,5-5A5,5,0,0,1,51,34Z"/></svg>